<?xml version="1.0" encoding="UTF-8" standalone="no"?>
<!-- Created with Inkscape (http://www.inkscape.org/) -->

<svg
   width="63.5mm"
   height="69.585419mm"
   viewBox="0 0 63.5 69.585419"
   version="1.1"
   id="svg5"
   sodipodi:docname="avatar.svg"
   inkscape:version="1.1.1 (3bf5ae0d25, 2021-09-20)"
   xmlns:inkscape="http://www.inkscape.org/namespaces/inkscape"
   xmlns:sodipodi="http://sodipodi.sourceforge.net/DTD/sodipodi-0.dtd"
   xmlns="http://www.w3.org/2000/svg"
   xmlns:svg="http://www.w3.org/2000/svg">
  <sodipodi:namedview
     id="namedview7"
     pagecolor="#ffffff"
     bordercolor="#666666"
     borderopacity="1.0"
     inkscape:pageshadow="2"
     inkscape:pageopacity="0.0"
     inkscape:pagecheckerboard="0"
     inkscape:document-units="mm"
     showgrid="false"
     fit-margin-top="0"
     fit-margin-left="0"
     fit-margin-right="0"
     fit-margin-bottom="0"
     inkscape:zoom="1.5554293"
     inkscape:cx="349.09976"
     inkscape:cy="279.66556"
     inkscape:window-width="3840"
     inkscape:window-height="2066"
     inkscape:window-x="-11"
     inkscape:window-y="-11"
     inkscape:window-maximized="1"
     inkscape:current-layer="g232" />
  <defs
     id="defs2">
    <path
       d="M 165.96047,29.294916 C 202.93647,32.324998 232,63.294286 232,101.05172 V 110 H 32 v -8.94828 C 32,62.952563 61.591985,31.764981 99.045406,29.219526 99.01526,29.593114 99,29.969227 99,30.347625 c 0,11.863093 14.99846,21.480029 33.5,21.480029 18.50154,0 33.5,-9.616936 33.5,-21.480029 0,-0.352956 -0.0133,-0.703924 -0.0395,-1.052709 z"
       id="react-path-87" />
    <path
       d="M 35.117844,15.128077 C 36.175712,24.619802 44.225987,32 54,32 63.804206,32 71.874008,24.574136 72.891759,15.040055 72.973669,14.272746 72.116743,13 71.042767,13 c -14.894013,0 -26.304846,0 -33.955943,0 -1.080207,0 -2.074818,1.178444 -1.96898,2.128077 z"
       id="react-path-267" />
    <path
       d="m 14,14.048119 c 9.609983,0 14,4.451328 14,-2.486347 C 28,4.6240967 21.731987,0 14,0 6.2680135,0 0,4.6240967 0,11.561772 c 0,6.937675 4.3900173,2.486347 14,2.486347 z"
       id="react-path-271" />
    <path
       d="m 14,14.048119 c 9.609983,0 14,4.451328 14,-2.486347 C 28,4.6240967 21.731987,0 14,0 6.2680135,0 0,4.6240967 0,11.561772 c 0,6.937675 4.3900173,2.486347 14,2.486347 z"
       id="react-path-272" />
    <rect
       id="react-path-261"
       x="0"
       y="0"
       width="264"
       height="280" />
    <path
       d="m 180.14998,39.920408 c -2.75977,-2.820009 -5.96407,-5.213578 -9.08073,-7.613858 -0.68768,-0.529108 -1.38641,-1.045467 -2.05871,-1.594706 -0.15285,-0.124812 -1.71854,-1.246105 -1.90585,-1.65879 -0.45087,-0.992791 -0.18965,-0.219762 -0.12743,-1.404468 0.0786,-1.498078 3.13338,-5.729267 0.85392,-6.699578 -1.00277,-0.426776 -2.79155,0.708945 -3.75351,1.084051 -1.88144,0.734109 -3.78595,1.360181 -5.73094,1.900026 0.93186,-1.856744 2.7086,-5.573587 -0.63082,-4.578783 -2.60157,0.775041 -5.02586,2.767669 -7.64013,3.7051 0.86495,-1.41789 4.32412,-5.811468 1.19843,-6.057065 -0.97266,-0.0765 -3.80301,1.748036 -4.85026,2.137235 -3.13673,1.165917 -6.34069,1.919485 -9.63395,2.513012 -11.19797,2.018127 -24.29276,1.442718 -34.6532,6.540879 -7.98732,3.930231 -15.874298,10.028565 -20.488414,17.794076 -4.447212,7.48502 -6.110568,15.676636 -7.041419,24.25376 -0.683003,6.29461 -0.738526,12.801266 -0.4191,19.118691 0.104357,2.069797 0.337153,11.61086 3.344105,8.721396 1.498125,-1.439698 1.487087,-7.253179 1.864377,-9.220978 0.750902,-3.915133 1.473708,-7.847713 2.725657,-11.637698 2.206213,-6.678776 4.808782,-13.793051 10.304915,-18.392972 3.527064,-2.951531 6.00387,-6.940813 9.379079,-9.918515 1.51619,-1.337366 0.35923,-1.198127 2.7969,-1.022652 1.6376,0.117766 3.28256,0.162725 4.92351,0.205671 3.79598,0.09864 7.59799,0.07348 11.39498,0.0869 7.64682,0.02751 15.25785,0.135548 22.89732,-0.264722 3.39494,-0.177823 6.79925,-0.274117 10.18517,-0.588159 1.89147,-0.175475 5.24762,-1.387693 6.80461,-0.461334 1.42487,0.847512 2.9046,3.614846 3.92777,4.748218 2.41726,2.678422 5.29946,4.724061 8.12612,6.920347 5.89417,4.579454 8.87001,10.3312 10.66013,17.48775 1.78344,7.130044 1.28339,13.744909 3.49095,20.761549 0.38832,1.233691 1.4155,3.360189 2.68184,1.454125 0.23513,-0.353969 0.17426,-2.299887 0.17426,-3.419576 0,-4.519746 1.14458,-7.910962 1.1302,-12.460219 -0.0562,-13.831971 -0.50339,-31.868289 -10.84978,-42.438713 z"
       id="react-path-260" />
  </defs>
  <g
     inkscape:label="Layer 1"
     inkscape:groupmode="layer"
     id="layer1"
     transform="translate(-61.8067,-40.392862)">
    <g
       id="g232"
       style="fill:none;fill-rule:evenodd;stroke:none;stroke-width:1"
       transform="matrix(0.26458333,0,0,0.26458333,58.6317,35.894945)">
      <g
         id="Circle"
         stroke-width="1"
         fill-rule="evenodd"
         transform="translate(12,40)">
        <mask
           id="react-mask-4"
           fill="#ffffff">
          <circle
             cx="120"
             cy="120"
             r="120"
             id="circle126" />
        </mask>
        <g
           id="Color/Palette/Blue-01"
           mask="url(#react-mask-4)"
           fill="#65c9ff">
          <rect
             id="ðŸ–Color"
             x="0"
             y="0"
             width="240"
             height="240"
             style="fill:#151e3c;fill-opacity:1" />
        </g>
      </g>
      <mask
         id="react-mask-5"
         fill="#ffffff">
        <path
           d="m 12,160 c 0,66.27417 53.72583,120 120,120 66.27417,0 120,-53.72583 120,-120 h 12 V 0 H 0 v 160 z"
           id="path132" />
      </mask>
      <g
         id="Mask" />
      <g
         id="Avataaar"
         stroke-width="1"
         fill-rule="evenodd"
         mask="url(#react-mask-5)">
        <g
           id="Body"
           transform="translate(32,36)">
          <mask
             id="react-mask-6"
             fill="#ffffff">
            <path
               d="M 124,144.61095 V 163 h 4 v 0 c 39.7645,0 72,32.2355 72,72 v 9 H 0 v -9 c 0,-39.7645 32.235498,-72 72,-72 v 0 h 4 V 144.61095 C 58.762634,136.42237 46.372225,119.68701 44.305139,99.881238 38.480311,99.057787 34,94.05211 34,88 V 74 C 34,68.054007 38.324573,63.118073 44,62.165917 V 56 56 C 44,25.072054 69.072054,0 100,0 v 0 0 c 30.92795,0 56,25.072054 56,56 v 6.165917 c 5.67543,0.952156 10,5.88809 10,11.834083 v 14 c 0,6.05211 -4.48031,11.057787 -10.30514,11.881238 C 153.62778,119.68701 141.23736,136.42237 124,144.61095 Z"
               id="path136" />
          </mask>
          <path
             d="M 124,144.61095 V 163 h 4 v 0 c 39.7645,0 72,32.2355 72,72 v 9 H 0 v -9 c 0,-39.7645 32.235498,-72 72,-72 v 0 h 4 V 144.61095 C 58.762634,136.42237 46.372225,119.68701 44.305139,99.881238 38.480311,99.057787 34,94.05211 34,88 V 74 C 34,68.054007 38.324573,63.118073 44,62.165917 V 56 56 C 44,25.072054 69.072054,0 100,0 v 0 0 c 30.92795,0 56,25.072054 56,56 v 6.165917 c 5.67543,0.952156 10,5.88809 10,11.834083 v 14 c 0,6.05211 -4.48031,11.057787 -10.30514,11.881238 C 153.62778,119.68701 141.23736,136.42237 124,144.61095 Z"
             fill="#d0c6ac"
             id="path139" />
          <g
             id="Skin/ðŸ‘¶ðŸ½-03-Brown"
             mask="url(#react-mask-6)"
             fill="#ffdbb4">
            <g
               id="Color">
              <rect
                 x="0"
                 y="0"
                 width="264"
                 height="280"
                 id="rect141" />
            </g>
          </g>
          <path
             d="m 156,79 v 23 c 0,30.92795 -25.07205,56 -56,56 -30.927946,0 -56,-25.07205 -56,-56 V 79 94 c 0,30.92795 25.072054,56 56,56 30.92795,0 56,-25.07205 56,-56 z"
             id="Neck-Shadow"
             fill-opacity="0.1"
             mask="url(#react-mask-6)"
             fill="#000000" />
        </g>
        <g
           id="Clothing/Shirt-Crew-Neck"
           transform="translate(0,170)">
          <defs
             id="defs148">
            <path
               d="M 165.96047,29.294916 C 202.93647,32.324998 232,63.294286 232,101.05172 V 110 H 32 v -8.94828 C 32,62.952563 61.591985,31.764981 99.045406,29.219526 99.01526,29.593114 99,29.969227 99,30.347625 c 0,11.863093 14.99846,21.480029 33.5,21.480029 18.50154,0 33.5,-9.616936 33.5,-21.480029 0,-0.352956 -0.0133,-0.703924 -0.0395,-1.052709 z"
               id="path420" />
          </defs>
          <mask
             id="react-mask-88"
             fill="#ffffff">
            <path
               d="M 165.96047,29.294916 C 202.93647,32.324998 232,63.294286 232,101.05172 V 110 H 32 v -8.94828 C 32,62.952563 61.591985,31.764981 99.045406,29.219526 99.01526,29.593114 99,29.969227 99,30.347625 c 0,11.863093 14.99846,21.480029 33.5,21.480029 18.50154,0 33.5,-9.616936 33.5,-21.480029 0,-0.352956 -0.0133,-0.703924 -0.0395,-1.052709 z"
               id="path150" />
          </mask>
          <path
             d="M 165.96047,29.294916 C 202.93647,32.324998 232,63.294286 232,101.05172 V 110 H 32 v -8.94828 C 32,62.952563 61.591985,31.764981 99.045406,29.219526 99.01526,29.593114 99,29.969227 99,30.347625 c 0,11.863093 14.99846,21.480029 33.5,21.480029 18.50154,0 33.5,-9.616936 33.5,-21.480029 0,-0.352956 -0.0133,-0.703924 -0.0395,-1.052709 z"
             id="Clothes"
             fill-rule="evenodd"
             fill="#e6e6e6" />
          <g
             id="Color/Palette/Gray-01"
             mask="url(#react-mask-88)"
             fill-rule="evenodd"
             fill="#929598">
            <rect
               id="rect154"
               x="0"
               y="0"
               width="264"
               height="110" />
          </g>
          <g
             id="Shadowy"
             opacity="0.6"
             stroke-width="1"
             fill-rule="evenodd"
             mask="url(#react-mask-88)"
             fill-opacity="0.16"
             fill="#000000">
            <g
               transform="translate(92,4)"
               id="Hola-ðŸ‘‹ðŸ¼">
              <ellipse
                 cx="40.5"
                 cy="27.847626"
                 rx="39.635105"
                 ry="26.913828"
                 id="ellipse157" />
            </g>
          </g>
        </g>
        <g
           id="Face"
           transform="translate(76,82)"
           fill="#000000">
          <g
             id="Mouth/Smile"
             transform="translate(2,52)">
            <defs
               id="defs163">
              <path
                 d="M 35.117844,15.128077 C 36.175712,24.619802 44.225987,32 54,32 63.804206,32 71.874008,24.574136 72.891759,15.040055 72.973669,14.272746 72.116743,13 71.042767,13 c -14.894013,0 -26.304846,0 -33.955943,0 -1.080207,0 -2.074818,1.178444 -1.96898,2.128077 z"
                 id="path432" />
            </defs>
            <mask
               id="react-mask-268"
               fill="#ffffff">
              <path
                 d="M 35.117844,15.128077 C 36.175712,24.619802 44.225987,32 54,32 63.804206,32 71.874008,24.574136 72.891759,15.040055 72.973669,14.272746 72.116743,13 71.042767,13 c -14.894013,0 -26.304846,0 -33.955943,0 -1.080207,0 -2.074818,1.178444 -1.96898,2.128077 z"
                 id="path165" />
            </mask>
            <path
               d="M 35.117844,15.128077 C 36.175712,24.619802 44.225987,32 54,32 63.804206,32 71.874008,24.574136 72.891759,15.040055 72.973669,14.272746 72.116743,13 71.042767,13 c -14.894013,0 -26.304846,0 -33.955943,0 -1.080207,0 -2.074818,1.178444 -1.96898,2.128077 z"
               id="Mouth"
               fill-opacity="0.7"
               fill-rule="evenodd"
               fill="#000000" />
            <rect
               id="Teeth"
               fill-rule="evenodd"
               mask="url(#react-mask-268)"
               x="39"
               y="2"
               width="31"
               height="16"
               rx="5"
               fill="#ffffff" />
            <g
               id="Tongue"
               stroke-width="1"
               fill-rule="evenodd"
               mask="url(#react-mask-268)"
               fill="#ff4f6d">
              <g
                 transform="translate(38,24)"
                 id="g174">
                <circle
                   cx="11"
                   cy="11"
                   r="11"
                   id="circle170" />
                <circle
                   cx="21"
                   cy="11"
                   r="11"
                   id="circle172" />
              </g>
            </g>
          </g>
          <g
             id="Nose/Default"
             transform="translate(28,40)"
             fill-opacity="0.16">
            <path
               d="m 16,8 c 0,4.418278 5.372583,8 12,8 v 0 c 6.627417,0 12,-3.581722 12,-8"
               id="Nose" />
          </g>
          <g
             id="Eyes/Squint-ðŸ˜Š"
             transform="translate(0,8)">
            <defs
               id="defs182">
              <path
                 d="m 14,14.048119 c 9.609983,0 14,4.451328 14,-2.486347 C 28,4.6240967 21.731987,0 14,0 6.2680135,0 0,4.6240967 0,11.561772 c 0,6.937675 4.3900173,2.486347 14,2.486347 z"
                 id="path446" />
              <path
                 d="m 14,14.048119 c 9.609983,0 14,4.451328 14,-2.486347 C 28,4.6240967 21.731987,0 14,0 6.2680135,0 0,4.6240967 0,11.561772 c 0,6.937675 4.3900173,2.486347 14,2.486347 z"
                 id="path448" />
            </defs>
            <g
               id="Eye"
               transform="translate(16,13)">
              <mask
                 id="react-mask-273"
                 fill="#ffffff">
                <path
                   d="m 14,14.048119 c 9.609983,0 14,4.451328 14,-2.486347 C 28,4.6240967 21.731987,0 14,0 6.2680135,0 0,4.6240967 0,11.561772 c 0,6.937675 4.3900173,2.486347 14,2.486347 z"
                   id="path184" />
              </mask>
              <path
                 d="m 14,14.048119 c 9.609983,0 14,4.451328 14,-2.486347 C 28,4.6240967 21.731987,0 14,0 6.2680135,0 0,4.6240967 0,11.561772 c 0,6.937675 4.3900173,2.486347 14,2.486347 z"
                 id="The-white-stuff"
                 fill="#ffffff" />
              <circle
                 fill-opacity="0.7"
                 mask="url(#react-mask-273)"
                 cx="14"
                 cy="10"
                 r="6"
                 fill="#000000"
                 id="circle188" />
            </g>
            <g
               id="g197"
               transform="translate(68,13)">
              <mask
                 id="react-mask-274"
                 fill="#ffffff">
                <path
                   d="m 14,14.048119 c 9.609983,0 14,4.451328 14,-2.486347 C 28,4.6240967 21.731987,0 14,0 6.2680135,0 0,4.6240967 0,11.561772 c 0,6.937675 4.3900173,2.486347 14,2.486347 z"
                   id="path191" />
              </mask>
              <path
                 d="m 14,14.048119 c 9.609983,0 14,4.451328 14,-2.486347 C 28,4.6240967 21.731987,0 14,0 6.2680135,0 0,4.6240967 0,11.561772 c 0,6.937675 4.3900173,2.486347 14,2.486347 z"
                 id="Eyeball-Mask"
                 fill="#ffffff" />
              <circle
                 fill-opacity="0.7"
                 mask="url(#react-mask-274)"
                 cx="14"
                 cy="10"
                 r="6"
                 fill="#000000"
                 id="circle195" />
            </g>
          </g>
          <g
             id="Eyebrow/Outline/Raised-Excited"
             fill-opacity="0.6">
            <g
               id="I-Browse"
               transform="translate(12)">
              <path
                 d="M 3.9757956,17.127917 C 5.4709915,7.6047616 18.058549,1.108676 27.163517,5.3010427 c 1.00332,0.461977 2.191178,0.023132 2.653155,-0.9801883 0.461977,-1.00332 0.02313,-2.1911779 -0.980189,-2.6531549 C 17.348821,-3.6217747 1.9357595,4.3324746 0.02420441,16.507492 -0.1471212,17.598694 0.59858577,18.622174 1.6897875,18.7935 2.7809893,18.964826 3.80447,18.219119 3.9757956,17.127917 Z"
                 id="Eyebrow"
                 fill-rule="nonzero" />
              <path
                 d="M 61.975796,17.127917 C 63.470991,7.6047616 76.058549,1.108676 85.163517,5.3010427 c 1.00332,0.461977 2.191178,0.023132 2.653155,-0.9801883 0.461977,-1.00332 0.02313,-2.1911779 -0.980189,-2.6531549 C 75.348821,-3.6217747 59.93576,4.3324746 58.024204,16.507492 c -0.171325,1.091202 0.574382,2.114682 1.665584,2.286008 1.091201,0.171326 2.114682,-0.574381 2.286008,-1.665583 z"
                 id="path201"
                 fill-rule="nonzero"
                 transform="matrix(-1,0,0,1,146.00019,0)" />
            </g>
          </g>
        </g>
        <g
           id="Top"
           stroke-width="1"
           fill-rule="evenodd">
          <defs
             id="defs208">
            <rect
               id="rect467"
               x="0"
               y="0"
               width="264"
               height="280" />
            <path
               d="m 180.14998,39.920408 c -2.75977,-2.820009 -5.96407,-5.213578 -9.08073,-7.613858 -0.68768,-0.529108 -1.38641,-1.045467 -2.05871,-1.594706 -0.15285,-0.124812 -1.71854,-1.246105 -1.90585,-1.65879 -0.45087,-0.992791 -0.18965,-0.219762 -0.12743,-1.404468 0.0786,-1.498078 3.13338,-5.729267 0.85392,-6.699578 -1.00277,-0.426776 -2.79155,0.708945 -3.75351,1.084051 -1.88144,0.734109 -3.78595,1.360181 -5.73094,1.900026 0.93186,-1.856744 2.7086,-5.573587 -0.63082,-4.578783 -2.60157,0.775041 -5.02586,2.767669 -7.64013,3.7051 0.86495,-1.41789 4.32412,-5.811468 1.19843,-6.057065 -0.97266,-0.0765 -3.80301,1.748036 -4.85026,2.137235 -3.13673,1.165917 -6.34069,1.919485 -9.63395,2.513012 -11.19797,2.018127 -24.29276,1.442718 -34.6532,6.540879 -7.98732,3.930231 -15.874298,10.028565 -20.488414,17.794076 -4.447212,7.48502 -6.110568,15.676636 -7.041419,24.25376 -0.683003,6.29461 -0.738526,12.801266 -0.4191,19.118691 0.104357,2.069797 0.337153,11.61086 3.344105,8.721396 1.498125,-1.439698 1.487087,-7.253179 1.864377,-9.220978 0.750902,-3.915133 1.473708,-7.847713 2.725657,-11.637698 2.206213,-6.678776 4.808782,-13.793051 10.304915,-18.392972 3.527064,-2.951531 6.00387,-6.940813 9.379079,-9.918515 1.51619,-1.337366 0.35923,-1.198127 2.7969,-1.022652 1.6376,0.117766 3.28256,0.162725 4.92351,0.205671 3.79598,0.09864 7.59799,0.07348 11.39498,0.0869 7.64682,0.02751 15.25785,0.135548 22.89732,-0.264722 3.39494,-0.177823 6.79925,-0.274117 10.18517,-0.588159 1.89147,-0.175475 5.24762,-1.387693 6.80461,-0.461334 1.42487,0.847512 2.9046,3.614846 3.92777,4.748218 2.41726,2.678422 5.29946,4.724061 8.12612,6.920347 5.89417,4.579454 8.87001,10.3312 10.66013,17.48775 1.78344,7.130044 1.28339,13.744909 3.49095,20.761549 0.38832,1.233691 1.4155,3.360189 2.68184,1.454125 0.23513,-0.353969 0.17426,-2.299887 0.17426,-3.419576 0,-4.519746 1.14458,-7.910962 1.1302,-12.460219 -0.0562,-13.831971 -0.50339,-31.868289 -10.84978,-42.438713 z"
               id="path469" />
          </defs>
          <mask
             id="react-mask-259"
             fill="#ffffff">
            <rect
               x="0"
               y="0"
               width="264"
               height="280"
               id="rect210" />
          </mask>
          <g
             id="g213" />
          <g
             id="Top/Short-Hair/Short-Flat"
             mask="url(#react-mask-259)">
            <g
               transform="translate(-1)"
               id="g227">
              <mask
                 id="react-mask-258"
                 fill="#ffffff">
                <path
                   d="m 180.14998,39.920408 c -2.75977,-2.820009 -5.96407,-5.213578 -9.08073,-7.613858 -0.68768,-0.529108 -1.38641,-1.045467 -2.05871,-1.594706 -0.15285,-0.124812 -1.71854,-1.246105 -1.90585,-1.65879 -0.45087,-0.992791 -0.18965,-0.219762 -0.12743,-1.404468 0.0786,-1.498078 3.13338,-5.729267 0.85392,-6.699578 -1.00277,-0.426776 -2.79155,0.708945 -3.75351,1.084051 -1.88144,0.734109 -3.78595,1.360181 -5.73094,1.900026 0.93186,-1.856744 2.7086,-5.573587 -0.63082,-4.578783 -2.60157,0.775041 -5.02586,2.767669 -7.64013,3.7051 0.86495,-1.41789 4.32412,-5.811468 1.19843,-6.057065 -0.97266,-0.0765 -3.80301,1.748036 -4.85026,2.137235 -3.13673,1.165917 -6.34069,1.919485 -9.63395,2.513012 -11.19797,2.018127 -24.29276,1.442718 -34.6532,6.540879 -7.98732,3.930231 -15.874298,10.028565 -20.488414,17.794076 -4.447212,7.48502 -6.110568,15.676636 -7.041419,24.25376 -0.683003,6.29461 -0.738526,12.801266 -0.4191,19.118691 0.104357,2.069797 0.337153,11.61086 3.344105,8.721396 1.498125,-1.439698 1.487087,-7.253179 1.864377,-9.220978 0.750902,-3.915133 1.473708,-7.847713 2.725657,-11.637698 2.206213,-6.678776 4.808782,-13.793051 10.304915,-18.392972 3.527064,-2.951531 6.00387,-6.940813 9.379079,-9.918515 1.51619,-1.337366 0.35923,-1.198127 2.7969,-1.022652 1.6376,0.117766 3.28256,0.162725 4.92351,0.205671 3.79598,0.09864 7.59799,0.07348 11.39498,0.0869 7.64682,0.02751 15.25785,0.135548 22.89732,-0.264722 3.39494,-0.177823 6.79925,-0.274117 10.18517,-0.588159 1.89147,-0.175475 5.24762,-1.387693 6.80461,-0.461334 1.42487,0.847512 2.9046,3.614846 3.92777,4.748218 2.41726,2.678422 5.29946,4.724061 8.12612,6.920347 5.89417,4.579454 8.87001,10.3312 10.66013,17.48775 1.78344,7.130044 1.28339,13.744909 3.49095,20.761549 0.38832,1.233691 1.4155,3.360189 2.68184,1.454125 0.23513,-0.353969 0.17426,-2.299887 0.17426,-3.419576 0,-4.519746 1.14458,-7.910962 1.1302,-12.460219 -0.0562,-13.831971 -0.50339,-31.868289 -10.84978,-42.438713 z"
                   id="path215" />
              </mask>
              <path
                 d="m 180.14998,39.920408 c -2.75977,-2.820009 -5.96407,-5.213578 -9.08073,-7.613858 -0.68768,-0.529108 -1.38641,-1.045467 -2.05871,-1.594706 -0.15285,-0.124812 -1.71854,-1.246105 -1.90585,-1.65879 -0.45087,-0.992791 -0.18965,-0.219762 -0.12743,-1.404468 0.0786,-1.498078 3.13338,-5.729267 0.85392,-6.699578 -1.00277,-0.426776 -2.79155,0.708945 -3.75351,1.084051 -1.88144,0.734109 -3.78595,1.360181 -5.73094,1.900026 0.93186,-1.856744 2.7086,-5.573587 -0.63082,-4.578783 -2.60157,0.775041 -5.02586,2.767669 -7.64013,3.7051 0.86495,-1.41789 4.32412,-5.811468 1.19843,-6.057065 -0.97266,-0.0765 -3.80301,1.748036 -4.85026,2.137235 -3.13673,1.165917 -6.34069,1.919485 -9.63395,2.513012 -11.19797,2.018127 -24.29276,1.442718 -34.6532,6.540879 -7.98732,3.930231 -15.874298,10.028565 -20.488414,17.794076 -4.447212,7.48502 -6.110568,15.676636 -7.041419,24.25376 -0.683003,6.29461 -0.738526,12.801266 -0.4191,19.118691 0.104357,2.069797 0.337153,11.61086 3.344105,8.721396 1.498125,-1.439698 1.487087,-7.253179 1.864377,-9.220978 0.750902,-3.915133 1.473708,-7.847713 2.725657,-11.637698 2.206213,-6.678776 4.808782,-13.793051 10.304915,-18.392972 3.527064,-2.951531 6.00387,-6.940813 9.379079,-9.918515 1.51619,-1.337366 0.35923,-1.198127 2.7969,-1.022652 1.6376,0.117766 3.28256,0.162725 4.92351,0.205671 3.79598,0.09864 7.59799,0.07348 11.39498,0.0869 7.64682,0.02751 15.25785,0.135548 22.89732,-0.264722 3.39494,-0.177823 6.79925,-0.274117 10.18517,-0.588159 1.89147,-0.175475 5.24762,-1.387693 6.80461,-0.461334 1.42487,0.847512 2.9046,3.614846 3.92777,4.748218 2.41726,2.678422 5.29946,4.724061 8.12612,6.920347 5.89417,4.579454 8.87001,10.3312 10.66013,17.48775 1.78344,7.130044 1.28339,13.744909 3.49095,20.761549 0.38832,1.233691 1.4155,3.360189 2.68184,1.454125 0.23513,-0.353969 0.17426,-2.299887 0.17426,-3.419576 0,-4.519746 1.14458,-7.910962 1.1302,-12.460219 -0.0562,-13.831971 -0.50339,-31.868289 -10.84978,-42.438713 z"
                 id="Short-Hair"
                 stroke="none"
                 fill-rule="evenodd"
                 fill="#1f3140" />
              <g
                 id="g225"
                 mask="url(#react-mask-258)"
                 fill="#2c1b18">
                <g
                   id="g223">
                  <rect
                     width="264"
                     height="280"
                     rx="101.498"
                     ry="101.498"
                     y="0"
                     x="0"
                     id="rect219" />
                  <path
                     d="m 101.498,-0.5 h 61.004 c 28.13,0.022 53.693,11.444 72.123,29.875 18.431,18.43 29.853,43.993 29.875,72.123 v 77.004 c -0.022,28.13 -11.444,53.693 -29.875,72.123 -18.43,18.431 -43.993,29.853 -72.123,29.875 H 101.498 C 73.368,280.478 47.805,269.056 29.375,250.625 10.944,232.195 -0.478,206.632 -0.5,178.502 V 101.498 C -0.478,73.368 10.944,47.805 29.375,29.375 47.805,10.944 73.368,-0.478 101.498,-0.5 Z M 30.082,30.082 C 11.777,48.386 0.478,73.572 0.5,101.498 v 77.004 c -0.022,27.926 11.277,53.112 29.582,71.416 18.304,18.305 43.49,29.604 71.416,29.582 h 61.004 c 27.926,0.022 53.112,-11.277 71.416,-29.582 18.305,-18.304 29.604,-43.49 29.582,-71.416 V 101.498 C 263.522,73.572 252.223,48.386 233.918,30.082 215.614,11.777 190.428,0.478 162.502,0.5 H 101.498 C 73.572,0.478 48.386,11.777 30.082,30.082 Z"
                     style="fill:none"
                     id="path221" />
                </g>
              </g>
            </g>
          </g>
        </g>
      </g>
    </g>
  </g>
</svg>
